<?xml version="1.0" encoding="UTF-8"?>
<!DOCTYPE svg PUBLIC "-//W3C//DTD SVG 1.1//EN" "http://www.w3.org/Graphics/SVG/1.1/DTD/svg11.dtd">
<!-- Creator: CorelDRAW 2020 (64-Bit) -->
<svg xmlns="http://www.w3.org/2000/svg" xml:space="preserve" width="1629px" height="187px" version="1.1" style="shape-rendering:geometricPrecision; text-rendering:geometricPrecision; image-rendering:optimizeQuality; fill-rule:evenodd; clip-rule:evenodd"
viewBox="0 0 1712.26 196.97"
 xmlns:xlink="http://www.w3.org/1999/xlink"
 xmlns:xodm="http://www.corel.com/coreldraw/odm/2003">
 <defs>
  <style type="text/css">
   <![CDATA[
    .fil0 {fill:#FFD531;fill-rule:nonzero}
    .fil1 {fill:#272424;fill-rule:nonzero}
   ]]>
  </style>
 </defs>
 <g id="Слой_x0020_1">
  <metadata id="CorelCorpID_0Corel-Layer"/>
  <polygon class="fil0" points="148.59,0 67.18,196.97 114.9,196.97 196.31,0 "/>
  <polygon class="fil0" points="82.07,0 0.65,196.97 48.37,196.97 129.78,0 "/>
  <polygon class="fil0" points="63.24,0 0,0 0,153.02 "/>
  <polygon class="fil0" points="133.71,196.97 196.97,196.97 196.97,43.94 "/>
  <polygon class="fil1" points="340.6,112.88 389.24,50.3 357.22,50.3 312.25,106.53 312.25,50.3 274.61,50.3 274.61,196.96 312.25,196.96 312.25,138.55 351.85,196.96 395.35,196.96 "/>
  <path class="fil1" d="M514.16 196.97l44.73 0 -59.15 -146.67 -29.83 0 -62.82 146.67 25.67 0 15.15 -37.4 52.07 0 14.18 37.4zm-22 -57.44l-35.93 0 18.57 -46.21 17.36 46.21z"/>
  <path class="fil1" d="M648.72 96.99c0,19.8 -15.4,32.27 -32.75,32.27l-4.65 0 0 -60.37 4.65 0c17.35,0 32.75,8.3 32.75,28.1zm-13.44 -46.69l-61.85 0 0 146.67 37.89 0 0 -48.89 23.96 0c29.82,0 56.21,-18.33 56.21,-50.6 0,-32.51 -26.64,-47.18 -56.21,-47.18z"/>
  <polygon class="fil1" points="708.6,196.96 746.49,196.96 746.49,50.31 708.6,50.31 "/>
  <polygon class="fil1" points="880.66,50.31 768.46,50.31 768.46,70.35 805.86,70.35 805.86,196.97 843.75,196.97 843.75,70.35 880.66,70.35 "/>
  <path class="fil1" d="M979.23 196.97l44.73 0 -59.15 -146.67 -29.82 0 -62.82 146.67 25.67 0 15.15 -37.4 52.07 0 14.17 37.4zm-21.99 -57.44l-35.94 0 18.58 -46.21 17.36 46.21z"/>
  <polygon class="fil1" points="1076.4,50.31 1038.51,50.31 1038.51,196.97 1135.55,196.97 1135.55,176.92 1076.4,176.92 "/>
  <path class="fil1" d="M1237.26 115.82c12.71,-5.14 20.77,-14.43 20.77,-30.8 0,-30.32 -27.38,-34.71 -51.57,-34.71l-53.78 0 0 146.65 62.08 0c26.65,0 55.49,-13.19 55.49,-42.77 0,-20.29 -13.93,-35.19 -32.99,-38.37zm-36.67 62.57l-10.02 0 0 -53.29 10.02 0c12.95,0 29.82,8.32 29.82,26.16 0,17.84 -16.87,27.13 -29.82,27.13zm-10.02 -109.02l3.17 0c14.18,0 30.56,2.45 30.56,17.85 0,15.15 -16.38,18.82 -30.56,18.82l-3.17 0 0 -36.67z"/>
  <path class="fil1" d="M1379.69 196.97l44.73 0 -59.16 -146.67 -29.82 0 -62.81 146.67 25.66 0 15.15 -37.4 52.07 0 14.18 37.4zm-22 -57.44l-35.94 0 18.58 -46.21 17.36 46.21z"/>
  <polygon class="fil1" points="1543.82,140.75 1478.07,50.31 1441.41,50.31 1441.41,196.97 1464.63,196.97 1464.63,93.32 1538.21,196.97 1567.04,196.97 1567.04,50.31 1543.82,50.31 "/>
  <polygon class="fil1" points="1657.5,112.88 1706.15,50.3 1674.12,50.3 1629.15,106.52 1629.15,50.3 1591.51,50.3 1591.51,196.96 1629.15,196.96 1629.15,138.55 1668.75,196.96 1712.26,196.96 "/>
 </g>
</svg>
